<?xml version="1.0" standalone="no"?>
<!DOCTYPE svg PUBLIC "-//W3C//DTD SVG 20010904//EN"
 "http://www.w3.org/TR/2001/REC-SVG-20010904/DTD/svg10.dtd">
<svg version="1.0" xmlns="http://www.w3.org/2000/svg"
 width="512.000000pt" height="512.000000pt" viewBox="0 0 512.000000 512.000000"
 preserveAspectRatio="xMidYMid meet">

<g transform="translate(0.000000,512.000000) scale(0.100000,-0.100000)"
fill="#000000" stroke="none">
<path d="M3055 4466 c-37 -17 -70 -52 -84 -89 -7 -18 -11 -173 -11 -442 l0
-414 -509 -3 c-497 -3 -510 -4 -537 -24 -15 -11 -37 -33 -48 -48 -20 -27 -21
-41 -24 -456 l-3 -429 -509 -3 c-496 -3 -509 -4 -536 -24 -15 -11 -37 -33 -48
-48 -21 -27 -21 -39 -24 -696 l-2 -668 -110 -4 c-91 -2 -113 -6 -136 -24 -53
-39 -69 -71 -69 -134 0 -63 16 -95 69 -134 l27 -21 2059 0 2059 0 27 21 c53
39 69 71 69 134 0 63 -16 95 -69 134 -23 18 -45 22 -137 24 l-109 4 -2 1628
c-3 1627 -3 1629 -24 1656 -11 15 -33 37 -48 48 -27 21 -39 21 -634 23 -491 2
-613 0 -637 -11z m1025 -1826 l0 -1520 -400 0 -400 0 0 1520 0 1520 400 0 400
0 0 -1520z m-1120 -480 l0 -1040 -400 0 -400 0 0 1040 0 1040 400 0 400 0 0
-1040z m-1120 -480 l0 -560 -400 0 -400 0 0 560 0 560 400 0 400 0 0 -560z"/>
</g>
</svg>
